M48
; DRILL file {KiCad 9.0.4-9.0.4-0~ubuntu22.04.1} date 2025-12-08T20:54:37+0530
; FORMAT={-:-/ absolute / metric / decimal}
; #@! TF.CreationDate,2025-12-08T20:54:37+05:30
; #@! TF.GenerationSoftware,Kicad,Pcbnew,9.0.4-9.0.4-0~ubuntu22.04.1
; #@! TF.FileFunction,Plated,1,2,PTH
FMAT,2
METRIC
; #@! TA.AperFunction,Plated,PTH,ComponentDrill
T1C0.200
; #@! TA.AperFunction,Plated,PTH,ViaDrill
T2C0.300
; #@! TA.AperFunction,Plated,PTH,ViaDrill
T3C0.400
; #@! TA.AperFunction,Plated,PTH,ComponentDrill
T4C0.500
; #@! TA.AperFunction,Plated,PTH,ComponentDrill
T5C0.600
; #@! TA.AperFunction,Plated,PTH,ComponentDrill
T6C0.750
; #@! TA.AperFunction,Plated,PTH,ComponentDrill
T7C1.000
; #@! TA.AperFunction,Plated,PTH,ComponentDrill
T8C1.100
; #@! TA.AperFunction,Plated,PTH,ComponentDrill
T9C3.200
%
G90
G05
T1
X137.35Y-73.59
X137.35Y-74.99
X138.05Y-72.89
X138.05Y-74.29
X138.05Y-75.69
X138.75Y-73.59
X138.75Y-74.99
X139.45Y-72.89
X139.45Y-74.29
X139.45Y-75.69
X140.15Y-73.59
X140.15Y-74.99
X164.1Y-110.1
X164.1Y-111.3
X164.1Y-112.5
X165.5Y-110.1
X165.5Y-111.3
X165.5Y-112.5
T2
X137.0Y-95.75
X142.5Y-92.0
X143.25Y-94.75
X144.25Y-89.9
X144.25Y-92.25
X144.5Y-76.75
X144.75Y-87.75
X145.25Y-77.25
X146.25Y-77.25
X147.0Y-78.0
X151.75Y-68.25
X156.0Y-87.25
X157.0Y-97.5
X158.0Y-112.75
X158.5Y-94.75
X159.0Y-97.25
X160.25Y-109.5
X163.8Y-84.5
T3
X125.9Y-92.9
X125.9Y-92.9
X126.0Y-86.95
X127.5Y-104.75
X131.5Y-102.75
X131.55Y-89.95
X132.9Y-89.2
X149.0Y-98.5
X157.0Y-89.25
X160.0Y-113.75
X164.75Y-108.0
X168.75Y-99.65
T4
X111.903Y-69.697
X112.2Y-121.0
X112.606Y-68.0
X112.606Y-71.394
X112.903Y-119.303
X112.903Y-122.697
X114.303Y-67.297
X114.303Y-72.097
X114.6Y-118.6
X114.6Y-123.4
X116.0Y-68.0
X116.0Y-71.394
X116.297Y-119.303
X116.297Y-122.697
X116.703Y-69.697
X117.0Y-121.0
X163.2Y-121.0
X163.297Y-69.303
X163.903Y-119.303
X163.903Y-122.697
X164.0Y-67.606
X164.0Y-71.0
X165.6Y-118.6
X165.6Y-123.4
X165.697Y-66.903
X165.697Y-71.703
X167.297Y-119.303
X167.297Y-122.697
X167.394Y-67.606
X167.394Y-71.0
X168.0Y-121.0
X168.097Y-69.303
T6
X147.0Y-101.5
X148.5Y-122.5
X149.0Y-101.5
X150.5Y-122.5
X152.5Y-122.5
X154.5Y-122.5
T7
X112.0Y-103.07
X112.0Y-107.66
X112.0Y-112.25
X112.17Y-99.0
X114.54Y-103.07
X114.54Y-107.66
X114.54Y-112.25
X114.71Y-99.0
X117.08Y-103.07
X117.08Y-107.66
X117.08Y-112.25
X117.25Y-99.0
T8
X138.0Y-111.75
X138.0Y-121.91
T9
X114.303Y-69.697
X114.6Y-121.0
X165.6Y-121.0
X165.697Y-69.303
T5
G00X123.63Y-116.52
M15
G01X123.63Y-117.62
M16
G05
G00X123.63Y-120.95
M15
G01X123.63Y-121.55
M16
G05
G00X132.27Y-116.52
M15
G01X132.27Y-117.62
M16
G05
G00X132.27Y-120.95
M15
G01X132.27Y-121.55
M16
G05
M30
