G04 #@! TF.GenerationSoftware,KiCad,Pcbnew,9.0.4-9.0.4-0~ubuntu22.04.1*
G04 #@! TF.CreationDate,2025-12-08T20:55:34+05:30*
G04 #@! TF.ProjectId,ESP32_FC,45535033-325f-4464-932e-6b696361645f,rev?*
G04 #@! TF.SameCoordinates,Original*
G04 #@! TF.FileFunction,Paste,Top*
G04 #@! TF.FilePolarity,Positive*
%FSLAX46Y46*%
G04 Gerber Fmt 4.6, Leading zero omitted, Abs format (unit mm)*
G04 Created by KiCad (PCBNEW 9.0.4-9.0.4-0~ubuntu22.04.1) date 2025-12-08 20:55:34*
%MOMM*%
%LPD*%
G01*
G04 APERTURE LIST*
G04 Aperture macros list*
%AMRoundRect*
0 Rectangle with rounded corners*
0 $1 Rounding radius*
0 $2 $3 $4 $5 $6 $7 $8 $9 X,Y pos of 4 corners*
0 Add a 4 corners polygon primitive as box body*
4,1,4,$2,$3,$4,$5,$6,$7,$8,$9,$2,$3,0*
0 Add four circle primitives for the rounded corners*
1,1,$1+$1,$2,$3*
1,1,$1+$1,$4,$5*
1,1,$1+$1,$6,$7*
1,1,$1+$1,$8,$9*
0 Add four rect primitives between the rounded corners*
20,1,$1+$1,$2,$3,$4,$5,0*
20,1,$1+$1,$4,$5,$6,$7,0*
20,1,$1+$1,$6,$7,$8,$9,0*
20,1,$1+$1,$8,$9,$2,$3,0*%
G04 Aperture macros list end*
%ADD10RoundRect,0.200000X-0.275000X0.200000X-0.275000X-0.200000X0.275000X-0.200000X0.275000X0.200000X0*%
%ADD11RoundRect,0.225000X0.250000X-0.225000X0.250000X0.225000X-0.250000X0.225000X-0.250000X-0.225000X0*%
%ADD12RoundRect,0.225000X0.225000X0.250000X-0.225000X0.250000X-0.225000X-0.250000X0.225000X-0.250000X0*%
%ADD13RoundRect,0.225000X-0.225000X-0.250000X0.225000X-0.250000X0.225000X0.250000X-0.225000X0.250000X0*%
%ADD14RoundRect,0.200000X-0.200000X-0.275000X0.200000X-0.275000X0.200000X0.275000X-0.200000X0.275000X0*%
%ADD15RoundRect,0.225000X-0.250000X0.225000X-0.250000X-0.225000X0.250000X-0.225000X0.250000X0.225000X0*%
%ADD16RoundRect,0.243750X0.456250X-0.243750X0.456250X0.243750X-0.456250X0.243750X-0.456250X-0.243750X0*%
%ADD17RoundRect,0.200000X0.275000X-0.200000X0.275000X0.200000X-0.275000X0.200000X-0.275000X-0.200000X0*%
%ADD18R,0.600000X1.450000*%
%ADD19R,0.300000X1.450000*%
%ADD20RoundRect,0.250000X-0.400000X-0.600000X0.400000X-0.600000X0.400000X0.600000X-0.400000X0.600000X0*%
%ADD21R,0.800000X1.000000*%
%ADD22R,1.500000X0.700000*%
%ADD23RoundRect,0.150000X-0.512500X-0.150000X0.512500X-0.150000X0.512500X0.150000X-0.512500X0.150000X0*%
%ADD24RoundRect,0.150000X0.150000X-0.512500X0.150000X0.512500X-0.150000X0.512500X-0.150000X-0.512500X0*%
%ADD25RoundRect,0.250000X1.000000X0.650000X-1.000000X0.650000X-1.000000X-0.650000X1.000000X-0.650000X0*%
%ADD26RoundRect,0.200000X0.200000X0.275000X-0.200000X0.275000X-0.200000X-0.275000X0.200000X-0.275000X0*%
%ADD27RoundRect,0.250000X0.255000X0.440000X-0.255000X0.440000X-0.255000X-0.440000X0.255000X-0.440000X0*%
%ADD28RoundRect,0.150000X0.825000X0.150000X-0.825000X0.150000X-0.825000X-0.150000X0.825000X-0.150000X0*%
%ADD29R,1.250000X1.000000*%
%ADD30R,0.900000X0.900000*%
%ADD31R,1.500000X0.900000*%
%ADD32R,0.900000X1.500000*%
%ADD33RoundRect,0.375000X-0.625000X-0.375000X0.625000X-0.375000X0.625000X0.375000X-0.625000X0.375000X0*%
%ADD34RoundRect,0.500000X-0.500000X-1.400000X0.500000X-1.400000X0.500000X1.400000X-0.500000X1.400000X0*%
%ADD35RoundRect,0.050000X0.150000X-0.730000X0.150000X0.730000X-0.150000X0.730000X-0.150000X-0.730000X0*%
%ADD36RoundRect,0.075000X-0.075000X0.350000X-0.075000X-0.350000X0.075000X-0.350000X0.075000X0.350000X0*%
%ADD37RoundRect,0.075000X-0.350000X-0.075000X0.350000X-0.075000X0.350000X0.075000X-0.350000X0.075000X0*%
%ADD38R,1.000000X0.800000*%
G04 APERTURE END LIST*
D10*
X132490000Y-106925000D03*
X132490000Y-108575000D03*
D11*
X138010000Y-100600000D03*
X138010000Y-99050000D03*
D12*
X121500000Y-75490000D03*
X119950000Y-75490000D03*
D11*
X169000000Y-91050000D03*
X169000000Y-89500000D03*
D13*
X156450000Y-102500000D03*
X158000000Y-102500000D03*
D14*
X161850000Y-106000000D03*
X163500000Y-106000000D03*
D13*
X136800000Y-89750000D03*
X138350000Y-89750000D03*
D15*
X166000000Y-96975000D03*
X166000000Y-98525000D03*
D14*
X162500000Y-86000000D03*
X164150000Y-86000000D03*
D16*
X155100000Y-106400000D03*
X155100000Y-104525000D03*
D13*
X120000000Y-93500000D03*
X121550000Y-93500000D03*
D12*
X153550000Y-94000000D03*
X152000000Y-94000000D03*
D17*
X145850000Y-90675000D03*
X145850000Y-89025000D03*
D18*
X124700000Y-116155000D03*
X125500000Y-116155000D03*
D19*
X126700000Y-116155000D03*
X127700000Y-116155000D03*
X128200000Y-116155000D03*
X129200000Y-116155000D03*
D18*
X130400000Y-116155000D03*
X131200000Y-116155000D03*
X131200000Y-116155000D03*
X130400000Y-116155000D03*
D19*
X129700000Y-116155000D03*
X128700000Y-116155000D03*
X127200000Y-116155000D03*
X126200000Y-116155000D03*
D18*
X125500000Y-116155000D03*
X124700000Y-116155000D03*
D20*
X148250000Y-114500000D03*
X151750000Y-114500000D03*
D11*
X155500000Y-114550000D03*
X155500000Y-113000000D03*
D21*
X165720000Y-84350000D03*
X167930000Y-84350000D03*
X165720000Y-77050000D03*
X167930000Y-77050000D03*
D22*
X165070000Y-82950000D03*
X165070000Y-79950000D03*
X165070000Y-78450000D03*
D15*
X135500000Y-99000000D03*
X135500000Y-100550000D03*
D12*
X142550000Y-99750000D03*
X141000000Y-99750000D03*
D10*
X158500000Y-108750000D03*
X158500000Y-110400000D03*
D13*
X149450000Y-118000000D03*
X151000000Y-118000000D03*
D23*
X157500000Y-98500000D03*
X157500000Y-99450000D03*
X157500000Y-100400000D03*
X159775000Y-100400000D03*
X159775000Y-99450000D03*
X159775000Y-98500000D03*
D10*
X126500000Y-74850000D03*
X126500000Y-76500000D03*
D13*
X157950000Y-96000000D03*
X159500000Y-96000000D03*
D17*
X126500000Y-69150000D03*
X126500000Y-67500000D03*
D10*
X152000000Y-104850000D03*
X152000000Y-106500000D03*
X162000000Y-93350000D03*
X162000000Y-95000000D03*
D24*
X126500000Y-108500000D03*
X127450000Y-108500000D03*
X128400000Y-108500000D03*
X128400000Y-106225000D03*
X127450000Y-106225000D03*
X126500000Y-106225000D03*
D25*
X167000000Y-102000000D03*
X163000000Y-102000000D03*
D26*
X167500000Y-106000000D03*
X165850000Y-106000000D03*
D15*
X154600000Y-98925000D03*
X154600000Y-100475000D03*
D27*
X165400000Y-112125000D03*
X165400000Y-110475000D03*
X164200000Y-112125000D03*
X164200000Y-110475000D03*
D28*
X167275000Y-113205000D03*
X167275000Y-111935000D03*
X167275000Y-110665000D03*
X167275000Y-109395000D03*
X162325000Y-109395000D03*
X162325000Y-110665000D03*
X162325000Y-111935000D03*
X162325000Y-113205000D03*
D10*
X155400000Y-108750000D03*
X155400000Y-110400000D03*
D12*
X121500000Y-81000000D03*
X119950000Y-81000000D03*
D17*
X163000000Y-98500000D03*
X163000000Y-96850000D03*
X148650000Y-90825000D03*
X148650000Y-89175000D03*
D16*
X158600000Y-106500000D03*
X158600000Y-104625000D03*
D23*
X164225000Y-89600000D03*
X164225000Y-90550000D03*
X164225000Y-91500000D03*
X166500000Y-91500000D03*
X166500000Y-90550000D03*
X166500000Y-89600000D03*
D17*
X143000000Y-90500000D03*
X143000000Y-88850000D03*
D29*
X153500000Y-75500000D03*
X161250000Y-75500000D03*
D30*
X137350000Y-72890000D03*
X137350000Y-74290000D03*
X137350000Y-75690000D03*
X138750000Y-72890000D03*
X138750000Y-74290000D03*
X138750000Y-75690000D03*
X140150000Y-72890000D03*
X140150000Y-74290000D03*
X140150000Y-75690000D03*
D31*
X131500000Y-66570000D03*
X131500000Y-67840000D03*
X131500000Y-69110000D03*
X131500000Y-70380000D03*
X131500000Y-71650000D03*
X131500000Y-72920000D03*
X131500000Y-74190000D03*
X131500000Y-75460000D03*
X131500000Y-76730000D03*
X131500000Y-78000000D03*
X131500000Y-79270000D03*
X131500000Y-80540000D03*
X131500000Y-81810000D03*
X131500000Y-83080000D03*
D32*
X133265000Y-84330000D03*
X134535000Y-84330000D03*
X135805000Y-84330000D03*
X137075000Y-84330000D03*
X138345000Y-84330000D03*
X139615000Y-84330000D03*
X140885000Y-84330000D03*
X142155000Y-84330000D03*
X143425000Y-84330000D03*
X144695000Y-84330000D03*
X145965000Y-84330000D03*
X147235000Y-84330000D03*
D31*
X149000000Y-83080000D03*
X149000000Y-81810000D03*
X149000000Y-80540000D03*
X149000000Y-79270000D03*
X149000000Y-78000000D03*
X149000000Y-76730000D03*
X149000000Y-75460000D03*
X149000000Y-74190000D03*
X149000000Y-72920000D03*
X149000000Y-71650000D03*
X149000000Y-70380000D03*
X149000000Y-69110000D03*
X149000000Y-67840000D03*
X149000000Y-66570000D03*
D14*
X151850000Y-85000000D03*
X153500000Y-85000000D03*
D33*
X113350000Y-84700000D03*
X113350000Y-87000000D03*
D34*
X119650000Y-87000000D03*
D33*
X113350000Y-89300000D03*
D35*
X157525000Y-91880000D03*
X158175000Y-91880000D03*
X158825000Y-91880000D03*
X159475000Y-91880000D03*
X159475000Y-86120000D03*
X158825000Y-86120000D03*
X158175000Y-86120000D03*
X157525000Y-86120000D03*
D13*
X115500000Y-93500000D03*
X117050000Y-93500000D03*
D36*
X141250000Y-93050000D03*
X140750000Y-93050000D03*
X140250000Y-93050000D03*
X139750000Y-93050000D03*
X139250000Y-93050000D03*
X138750000Y-93050000D03*
D37*
X138050000Y-93750000D03*
X138050000Y-94250000D03*
X138050000Y-94750000D03*
X138050000Y-95250000D03*
X138050000Y-95750000D03*
X138050000Y-96250000D03*
D36*
X138750000Y-96950000D03*
X139250000Y-96950000D03*
X139750000Y-96950000D03*
X140250000Y-96950000D03*
X140750000Y-96950000D03*
X141250000Y-96950000D03*
D37*
X141950000Y-96250000D03*
X141950000Y-95750000D03*
X141950000Y-95250000D03*
X141950000Y-94750000D03*
X141950000Y-94250000D03*
X141950000Y-93750000D03*
D16*
X126500000Y-80437500D03*
X126500000Y-78562500D03*
D21*
X147000000Y-96500000D03*
X148500000Y-96500000D03*
X150000000Y-96500000D03*
X150000000Y-93500000D03*
X148500000Y-93500000D03*
X147000000Y-93500000D03*
D38*
X146900000Y-95000000D03*
D17*
X140200000Y-90575000D03*
X140200000Y-88925000D03*
D10*
X152000000Y-108850000D03*
X152000000Y-110500000D03*
D14*
X122100000Y-108500000D03*
X123750000Y-108500000D03*
D11*
X132500000Y-100500000D03*
X132500000Y-98950000D03*
D12*
X121500000Y-78000000D03*
X119950000Y-78000000D03*
D15*
X126500000Y-70950000D03*
X126500000Y-72500000D03*
M02*
