G04 #@! TF.GenerationSoftware,KiCad,Pcbnew,9.0.4-9.0.4-0~ubuntu22.04.1*
G04 #@! TF.CreationDate,2025-12-08T20:55:34+05:30*
G04 #@! TF.ProjectId,ESP32_FC,45535033-325f-4464-932e-6b696361645f,rev?*
G04 #@! TF.SameCoordinates,Original*
G04 #@! TF.FileFunction,Soldermask,Bot*
G04 #@! TF.FilePolarity,Negative*
%FSLAX46Y46*%
G04 Gerber Fmt 4.6, Leading zero omitted, Abs format (unit mm)*
G04 Created by KiCad (PCBNEW 9.0.4-9.0.4-0~ubuntu22.04.1) date 2025-12-08 20:55:34*
%MOMM*%
%LPD*%
G01*
G04 APERTURE LIST*
G04 Aperture macros list*
%AMRoundRect*
0 Rectangle with rounded corners*
0 $1 Rounding radius*
0 $2 $3 $4 $5 $6 $7 $8 $9 X,Y pos of 4 corners*
0 Add a 4 corners polygon primitive as box body*
4,1,4,$2,$3,$4,$5,$6,$7,$8,$9,$2,$3,0*
0 Add four circle primitives for the rounded corners*
1,1,$1+$1,$2,$3*
1,1,$1+$1,$4,$5*
1,1,$1+$1,$6,$7*
1,1,$1+$1,$8,$9*
0 Add four rect primitives between the rounded corners*
20,1,$1+$1,$2,$3,$4,$5,0*
20,1,$1+$1,$4,$5,$6,$7,0*
20,1,$1+$1,$6,$7,$8,$9,0*
20,1,$1+$1,$8,$9,$2,$3,0*%
G04 Aperture macros list end*
%ADD10R,1.700000X1.700000*%
%ADD11C,1.700000*%
%ADD12C,0.800000*%
%ADD13C,6.400000*%
%ADD14RoundRect,0.250000X0.350000X0.625000X-0.350000X0.625000X-0.350000X-0.625000X0.350000X-0.625000X0*%
%ADD15O,1.200000X1.750000*%
%ADD16C,0.650000*%
%ADD17O,1.000000X2.100000*%
%ADD18O,1.000000X1.600000*%
%ADD19C,0.900000*%
%ADD20RoundRect,0.249999X0.850001X-0.850001X0.850001X0.850001X-0.850001X0.850001X-0.850001X-0.850001X0*%
%ADD21C,2.200000*%
G04 APERTURE END LIST*
D10*
X117080000Y-112250000D03*
D11*
X114540000Y-112250000D03*
X112000000Y-112250000D03*
D10*
X117080000Y-103070000D03*
D11*
X114540000Y-103070000D03*
X112000000Y-103070000D03*
D12*
X111902944Y-69697056D03*
X112605888Y-68000000D03*
X112605888Y-71394112D03*
X114302944Y-67297056D03*
D13*
X114302944Y-69697056D03*
D12*
X114302944Y-72097056D03*
X116000000Y-68000000D03*
X116000000Y-71394112D03*
X116702944Y-69697056D03*
D14*
X154500000Y-122500000D03*
D15*
X152500000Y-122500000D03*
X150500000Y-122500000D03*
X148500000Y-122500000D03*
D16*
X125060000Y-117600000D03*
X130840000Y-117600000D03*
D17*
X123630000Y-117070000D03*
D18*
X123630000Y-121250000D03*
D17*
X132270000Y-117070000D03*
D18*
X132270000Y-121250000D03*
D14*
X149000000Y-101500000D03*
D15*
X147000000Y-101500000D03*
D19*
X166830000Y-82200000D03*
X166830000Y-79200000D03*
D12*
X112200000Y-121000000D03*
X112902944Y-119302944D03*
X112902944Y-122697056D03*
X114600000Y-118600000D03*
D13*
X114600000Y-121000000D03*
D12*
X114600000Y-123400000D03*
X116297056Y-119302944D03*
X116297056Y-122697056D03*
X117000000Y-121000000D03*
X163200000Y-121000000D03*
X163902944Y-119302944D03*
X163902944Y-122697056D03*
X165600000Y-118600000D03*
D13*
X165600000Y-121000000D03*
D12*
X165600000Y-123400000D03*
X167297056Y-119302944D03*
X167297056Y-122697056D03*
X168000000Y-121000000D03*
X163297056Y-69302944D03*
X164000000Y-67605888D03*
X164000000Y-71000000D03*
X165697056Y-66902944D03*
D13*
X165697056Y-69302944D03*
D12*
X165697056Y-71702944D03*
X167394112Y-67605888D03*
X167394112Y-71000000D03*
X168097056Y-69302944D03*
D20*
X138000000Y-121910000D03*
D21*
X138000000Y-111750000D03*
D10*
X117080000Y-107660000D03*
D11*
X114540000Y-107660000D03*
X112000000Y-107660000D03*
D10*
X117250000Y-99000000D03*
D11*
X114710000Y-99000000D03*
X112170000Y-99000000D03*
M02*
